<svg xmlns="http://www.w3.org/2000/svg" width="256" height="256"><path fill-opacity=".016" d="M0 128.004v128.004l128.25-.254 128.25-.254.254-127.75L257.008 0H0v128.004m.485.496c0 70.4.119 99.053.265 63.672.146-35.38.146-92.98 0-128C.604 29.153.485 58.1.485 128.5" fill="#1976D2" fill-rule="evenodd"/><path fill-opacity=".095" d="M113 .601C92.881 4.324 83.841 7.082 71.508 13.262c-12.939 6.482-22.327 13.367-33.603 24.643C19.781 56.029 9.618 73.873 3.395 98.5c-3.444 13.63-4.307 35.688-1.955 49.998 6.792 41.324 32.413 75.9 70.06 94.547 21.214 10.508 35.209 13.401 61.446 12.703 20.066-.535 29.596-2.517 45.832-9.536 48.069-20.778 79.678-69.91 77.95-121.161-1.118-33.15-14.302-63.613-37.704-87.117C200.973 19.804 179.99 8.338 154 2.402 147.665.956 118.104-.343 113 .601M44.5 99.998v36.998l19.645.002c16.747.002 20.582-.289 26-1.972 7.555-2.346 14.011-6.455 13.252-8.433-.292-.762.902-4.244 2.655-7.739 3.872-7.725 3.583-7.402 5.335-5.948 1.947 1.616 2.634.292 3.325-6.408.536-5.187.39-5.642-3.002-9.397-3.916-4.334-5.451-10.338-4.263-16.67.608-3.243.311-3.923-3.137-7.176-4.556-4.297-11.996-7.868-19.27-9.247C82.118 63.453 71.801 63 62.114 63L44.5 62.999v36.999m19.167-21.331c-.367.366-.667 10.266-.667 22V122h9.662c8.487 0 10.178-.302 13.903-2.485 8.407-4.927 12.094-19.065 7.57-29.024-2.29-5.041-7.942-10.066-12.858-11.431-4.186-1.162-16.565-1.439-17.61-.393M.395 128.5c.001 7.7.158 10.718.348 6.706.191-4.011.189-10.311-.002-14-.192-3.688-.348-.406-.346 7.294m107.355 25.58c-2.501 1.457-2.162 3.411.829 4.774 3.04 1.385 2.751 3.299-.653 4.315-2.184.651-2.126.704.574.527 4.034-.264 4.712-3.823 1.046-5.493-3.666-1.67-3.121-3.974.778-3.297.454.079.54-.318.191-.881-.751-1.216-.577-1.219-2.765.055m52 .836c3.545 3.406 2.427 8.084-1.931 8.084-2.385 0-3.519-4.648-1.805-7.401 1.187-1.905 1.154-1.972-.353-.727-2.064 1.706-2.165 6.465-.174 8.117 2.249 1.866 6.374.414 7.106-2.502.817-3.256.036-5.09-2.787-6.545l-2.306-1.189 2.25 2.163m6.691-.412c-1.894 1.468-1.874 1.56.809 3.788 1.512 1.256 2.75 2.799 2.75 3.429 0 .63-1.238 1.354-2.75 1.607-2.613.438-2.6.454.25.317 3.73-.18 4.911-4.063 1.558-5.126-2.306-.733-2.661-2.516-.858-4.319 1.689-1.689.562-1.494-1.759.304m23.309.412c1.238 1.189 2.25 2.733 2.25 3.432 0 2.311-2.601 4.875-4.566 4.502-2.298-.436-3.193-5.23-1.384-7.41.711-.857.784-1.44.179-1.44-2.443 0-3.029 7.091-.742 8.989 2.249 1.866 6.374.414 7.106-2.502.817-3.256.036-5.09-2.787-6.545l-2.306-1.189 2.25 2.163M32 159c0 4.627.181 5 2.429 5 3.034 0 5.571-2.446 5.571-5.371 0-3.006-1.824-4.629-5.2-4.629-2.693 0-2.8.19-2.8 5m10.116.25c.121 5.455.514 4.931 1.126-1.5.196-2.062-.003-3.75-.443-3.75-.439 0-.747 2.363-.683 5.25m5.41-.536c.799 2.632 1.457 4.899 1.463 5.036.006.137.419.25.917.25 1.011 0 4.357-9.07 3.619-9.808-.569-.569-2.525 4.367-2.525 6.373 0 2.853-1.793 1.353-2.427-2.03-.358-1.906-1.066-3.722-1.575-4.036-.508-.314-.271 1.582.528 4.215m8.825-.816c.101 2.987.711 4.75 1.899 5.495 2.973 1.863 5.227-.431 5.399-5.495.082-2.419-.044-3.273-.28-1.898-1.058 6.166-1.459 7-3.369 7-1.91 0-2.311-.834-3.369-7-.236-1.375-.362-.521-.28 1.898m10.829.852c-.176 5.134-.119 5.247 2.57 5.114 2.278-.113 2.373-.21.552-.563-1.82-.353-2.261-1.231-2.57-5.114l-.372-4.687-.18 5.25m6.77-2.657c-2.412 4.508 1.804 9.367 6.548 7.546 2.064-.792 1.894-4.276-.248-5.091-1.342-.511-1.477-.391-.578.515 1.584 1.596.547 3.937-1.744 3.937-3.001 0-4.381-3.66-2.476-6.567.877-1.338 1.15-2.433.606-2.433-.543 0-1.492.942-2.108 2.093m10.186.723c-.17 4.147 1.394 7.184 3.699 7.184 2.853 0 4.175-2.124 4.015-6.45l-.15-4.05-.6 4.5c-.488 3.659-1.014 4.559-2.815 4.815-2.249.32-2.599-.339-3.619-6.815-.31-1.971-.422-1.798-.53.816M95 159v5l3.25-.15c3.025-.139 3.06-.179.5-.566-3.464-.525-3.836-3.936-.5-4.578l2.25-.434-2.25-.136c-1.237-.075-2.25-.78-2.25-1.566 0-.787 1.013-1.626 2.25-1.864 1.929-.372 1.858-.453-.5-.57-2.651-.131-2.75.043-2.75 4.864m19 0v5l3.25-.136c2.35-.099 2.627-.256 1-.57-1.372-.264-2.25-1.159-2.25-2.294s.878-2.03 2.25-2.294l2.25-.434-2.25-.136c-1.237-.075-2.25-.78-2.25-1.566 0-.787 1.013-1.626 2.25-1.864 1.627-.314 1.35-.471-1-.57L114 154v5m9.116.25c.121 5.455.514 4.931 1.126-1.5.196-2.062-.003-3.75-.443-3.75-.439 0-.747 2.363-.683 5.25m3.859-4.592c1.343.667 1.32 3.077-.035 3.529-.695.231-.567 1.304.374 3.117 1.427 2.75 1.433 2.74 1.307-1.938-.079-2.918-.609-4.799-1.399-4.959-.7-.141-.811-.028-.247.251m4.269-.063c.304.498 1.066 2.817 1.693 5.155s1.53 4.25 2.008 4.25c.949 0 4.314-9.074 3.621-9.767-.235-.235-.98 1.416-1.655 3.67-1.5 5.008-2.483 5.194-3.338.632-.358-1.906-1.153-3.775-1.766-4.154-.614-.38-.867-.283-.563.214M141.3 159c0 3.025.187 4.262.416 2.75.229-1.512.229-3.988 0-5.5s-.416-.275-.416 2.75m4.9-3.8c-2.995 2.995.885 10.495 4.66 9.006 1.397-.551 1.343-.704-.36-1.034-4.483-.868-5.923-4.606-2.929-7.601.865-.864 1.18-1.571.7-1.571-.479 0-1.411.54-2.071 1.2m30.98 3.55c-.176 5.134-.119 5.247 2.57 5.114 2.278-.113 2.373-.21.552-.563-1.82-.353-2.261-1.231-2.57-5.114l-.372-4.687-.18 5.25m19.02-3.55c-.66.66-1.2 2.37-1.2 3.8 0 3.327 1.726 5.031 4.95 4.884 2.075-.094 2.178-.208.55-.608-1.1-.27-2.562-.948-3.25-1.506-1.827-1.483-1.526-5.51.5-6.69.963-.561 1.278-1.033.7-1.05-.577-.016-1.59.51-2.25 1.17m10.789-.95c-.006.137-.673 2.5-1.482 5.25-1.162 3.945-1.189 4.631-.129 3.25.738-.963 2.058-1.75 2.933-1.75.874 0 2.09.787 2.702 1.75.932 1.465 1.02 1.309.542-.956-.947-4.487-2.445-7.794-3.53-7.794-.564 0-1.03.113-1.036.25M215.3 159c0 3.025.187 4.262.416 2.75.229-1.512.229-3.988 0-5.5s-.416-.275-.416 2.75m3.7-3.115c0 1.037 1.173 2.654 2.607 3.593 2.698 1.768 2.346 2.978-1.107 3.809-1.897.456-1.891.487.128.597 1.17.064 2.731-.612 3.47-1.502 1.16-1.398.955-1.928-1.505-3.889-1.569-1.251-2.54-2.77-2.161-3.382.377-.611.209-1.111-.373-1.111s-1.059.848-1.059 1.885M33 159c0 3.667.245 4.103 2.148 3.82 2.989-.445 4.66-3.313 3.245-5.57-.604-.963-2.064-1.894-3.245-2.07-1.903-.283-2.148.153-2.148 3.82m174.719-3.385c-1.3 1.299-.75 4.385.781 4.385 1.629 0 1.736-.546.648-3.302-.391-.991-1.034-1.479-1.429-1.083" fill="#1976D2" fill-rule="evenodd"/><path fill-opacity=".353" d="M118.5.636C93.137 3.364 71.187 11.595 52.585 25.352 3.381 61.743-13.504 127.768 12.39 182.522c15.437 32.641 43.486 57.214 77.504 67.9 26.439 8.305 59.628 7.199 84.941-2.83 38.365-15.2 67.223-47.991 77.527-88.092 2.117-8.24 4.638-25.729 4.638-32.176 0-6.202-2.322-20.611-5.048-31.324-10.517-41.325-43.846-76.545-84.526-89.321C152.369 1.951 130.915-.699 118.5.636m8 61.77c-2.75.679-6.396 1.968-8.102 2.864-3.163 1.66-8.8 7.45-9.622 9.883-.314.931-1.781.153-4.746-2.518-2.359-2.125-6.819-5.05-9.91-6.5-5.462-2.561-6.247-2.644-27.87-2.954L44 62.863v75.339l20.75-.411c22.593-.448 28.417-1.63 35.802-7.263l3.344-2.55 4.802 3.052c7.773 4.942 17.313 7.442 28.366 7.434 8.799-.006 10.103-.271 16.291-3.318 8.776-4.321 11.898-8.761 12.47-17.737.517-8.121-.132-10.55-3.995-14.95-3.752-4.273-7.52-6.265-18.83-9.957-10.638-3.473-13.655-4.989-15.026-7.55-1.7-3.177-.249-5.789 3.906-7.034 4.387-1.315 12.957.491 22.022 4.639 2.972 1.359 5.457 2.353 5.524 2.207.067-.145 1.634-3.472 3.482-7.392 1.848-3.921 3.079-7.584 2.735-8.14-1.063-1.721-13.164-6.111-19.819-7.191-7.977-1.294-12.994-1.2-19.324.365m41.738 37.844l.262 37.25 25.25.267 25.25.267V121h-31V63h-20.024l.262 37.25M64 100.5V122l8.25-.022c9.755-.026 15.183-2.055 19.041-7.119 5.145-6.754 5.922-17.603 1.834-25.612C89.261 81.676 83.752 79 72.032 79H64v21.5m51.086 7.338c-1.173 6.365-1.14 6.613 1.102 8.312 3.75 2.841 12.899 5.998 18.812 6.491 7.072.589 10.388-1.044 10.807-5.322.425-4.354-2.643-6.906-11.267-9.373-3.872-1.108-9.561-3.062-12.643-4.342l-5.602-2.327-1.209 6.561M.355 128.5c-.003 4.95.166 7.101.376 4.78.209-2.321.212-6.371.005-9-.206-2.629-.378-.73-.381 4.22m31.312 25.167c-.367.366-.667 2.841-.667 5.5 0 4.801.022 4.833 3.3 4.833 4.019 0 5.7-1.517 5.7-5.143 0-3.91-5.924-7.6-8.333-5.19M42 158.5c0 3.025.45 5.5 1 5.5s1-2.475 1-5.5-.45-5.5-1-5.5-1 2.475-1 5.5m4.271-2.905C47.207 160.258 48.867 164 50 164s2.793-3.742 3.729-8.405c.402-2.002.236-2.691-.534-2.215-.615.379-1.41 2.249-1.768 4.155C51.07 159.441 50.428 161 50 161c-.428 0-1.07-1.559-1.427-3.465-.358-1.906-1.153-3.776-1.768-4.155-.77-.476-.936.213-.534 2.215M56.193 158c.292 5.238.445 5.516 3.198 5.83 3.587.409 4.574-1.048 4.594-6.78.019-5.469-1.712-4.312-2.168 1.45-.218 2.748-.786 4-1.817 4s-1.599-1.252-1.817-4c-.51-6.435-2.348-6.897-1.99-.5m10.557-4.428c-.412.419-.75 2.936-.75 5.595V164l3.75-.1c3.203-.085 3.385-.2 1.25-.789-2.12-.586-2.576-1.421-3-5.495-.275-2.643-.838-4.463-1.25-4.044m7.905 1.257c-1.936 2.139-2.171 6.255-.455 7.971.66.66 2.685 1.2 4.5 1.2 3 0 3.3-.273 3.3-3 0-2.333-.444-3-2-3-1.1 0-2 .45-2 1s.45 1 1 1 1 .675 1 1.5c0 1.91-2.387 1.943-3.954.055-2.092-2.521-.883-6.016 2.204-6.371 1.513-.174 2.75-.737 2.75-1.25 0-1.65-4.634-.996-6.345.895m9.36 2.221c.02 5.732 1.007 7.189 4.594 6.78 2.753-.314 2.906-.592 3.198-5.83.358-6.397-1.48-5.935-1.99.5-.218 2.748-.786 4-1.817 4s-1.599-1.252-1.817-4c-.456-5.762-2.187-6.919-2.168-1.45m10.652-3.383c-.367.366-.667 2.841-.667 5.5V164l3.75-.1c3.113-.082 3.338-.215 1.324-.777-3.298-.922-3.745-2.924-.908-4.061l2.334-.935-2.25-.064c-3.231-.091-2.932-3.063.309-3.063 1.451 0 2.292-.433 1.941-1-.694-1.123-4.808-1.358-5.833-.333m12.583-.005c-2.099.847-1.395 4.013 1.282 5.767 2.784 1.824 2.346 4.034-.645 3.252-1.038-.272-1.887-.056-1.887.479s1.237.83 2.75.656c3.515-.404 4.363-4.15 1.311-5.784-2.648-1.417-2.649-3.032-.002-3.032 1.132 0 1.781-.45 1.441-1-.652-1.055-2.173-1.176-4.25-.338M114 158.5v5.5l3.25-.136c2.35-.099 2.627-.256 1-.57-1.372-.264-2.25-1.159-2.25-2.294s.878-2.03 2.25-2.294l2.25-.434-2.25-.136c-2.798-.169-3.034-3.136-.25-3.136 1.1 0 2-.45 2-1s-1.35-1-3-1c-2.97 0-3 .056-3 5.5m8.667-4.833c-1.068 1.067-.769 10.333.333 10.333.55 0 1-.9 1-2s.623-2 1.383-2c.761 0 1.619.9 1.907 2 .287 1.1 1.004 2 1.592 2 .714 0 .767-.794.159-2.393-.501-1.316-.65-3.387-.332-4.602.788-3.014-3.82-5.56-6.042-3.338m8.853 2.458c1.792 8.235 3.718 10.004 5.578 5.125 1.793-4.707 2.342-8.64 1.097-7.87-.615.379-1.409 2.245-1.766 4.146-.748 3.988-1.986 3.765-2.929-.526-.36-1.637-1.117-3.264-1.684-3.614-.681-.42-.781.508-.296 2.739m9.48 2.316c0 3.057.45 5.559 1 5.559s1-2.223 1-4.941-.45-5.219-1-5.559c-.621-.384-1 1.49-1 4.941m5.571-3.87c-2.249 2.25-2.007 7.14.429 8.661 1.1.687 2 2.067 2 3.068 0 1.035.46 1.534 1.068 1.158.588-.363.827-1.29.532-2.059-.326-.85.138-1.434 1.181-1.489.946-.05.229-.52-1.591-1.044-2.965-.855-3.278-1.289-3-4.16.258-2.666.776-3.26 3.077-3.524 1.522-.175 2.508-.737 2.191-1.25-.897-1.451-4.149-1.098-5.887.639m9.614-.887c-.723.289-1.747 1.664-2.276 3.056-1.877 4.936 4.284 9.667 7.891 6.06 1.954-1.954 1.483-7.578-.734-8.765-2.082-1.114-2.838-1.168-4.881-.351m10.015.516c-1.9 1.9-1.409 3.748 1.326 4.994 2.956 1.347 2.723 3.341-.377 3.227-1.182-.044-2.149.293-2.149.75 0 1.484 4.718.873 6.098-.789 1.159-1.396.97-1.916-1.377-3.788-3.234-2.578-3.438-3.594-.721-3.594 1.1 0 2-.45 2-1 0-1.393-3.347-1.253-4.8.2m10.957 4.05L177 164l3.25-.1c2.995-.092 3.054-.154.75-.789-2.118-.585-2.591-1.448-3.093-5.651l-.593-4.96-.157 5.75m7.2-2.673c-2.373 3.623-.867 7.802 2.972 8.245 3.61.417 5.671-1.354 5.671-4.873 0-5.715-5.661-7.923-8.643-3.372m12.167-1.219c-2.226 1.628-2.518 7.4-.441 8.715.78.493 2.542.842 3.917.776 2.422-.118 2.428-.135.193-.562-3.036-.58-4.971-4.644-3.218-6.757.699-.842 2.115-1.53 3.147-1.53 1.033 0 1.878-.45 1.878-1 0-1.445-3.305-1.228-5.476.358m9.086 3.273c-1.88 5.517-1.961 6.369-.61 6.369.55 0 1-.675 1-1.5s.852-1.5 1.893-1.5 2.152.675 2.469 1.5c.316.825 1.012 1.5 1.546 1.5 1.25 0-2.215-10.269-3.624-10.739-.585-.195-1.789 1.772-2.674 4.37m9.057-3.964c-1.068 1.067-.769 10.333.333 10.333.55 0 1-2.475 1-5.5 0-5.562-.131-6.036-1.333-4.833m4.375 1.255c-.841 1.571-.546 2.273 1.617 3.848 2.669 1.944 2.494 4.886-.228 3.842-.752-.289-1.653-.062-2.002.503-.399.646.609.908 2.718.706 2.594-.248 3.425-.83 3.672-2.569.235-1.65-.364-2.509-2.25-3.226-3.051-1.16-3.402-3.026-.569-3.026 1.1 0 2-.45 2-1 0-1.782-3.899-1.057-4.958.922M33 158.93c0 2.598.452 4.064 1.25 4.055 2.556-.032 3.903-1.761 3.58-4.594-.241-2.111-.937-2.977-2.58-3.211-2.017-.286-2.25.102-2.25 3.75m91-2.43c0 1.03.655 1.52 1.75 1.31 2.108-.406 1.975-2.181-.197-2.633-.906-.189-1.553.362-1.553 1.323m31.53.404c-.849 2.677 1.172 6.3 3.287 5.893 1.193-.23 1.683-1.339 1.683-3.811 0-2.812-.418-3.546-2.164-3.794-1.459-.208-2.373.349-2.806 1.712m29.876.616c-.789 3.141 1.561 6.09 4.08 5.124 2.618-1.005 1.644-7.054-1.201-7.459-1.686-.24-2.373.318-2.879 2.335m22.125-.227c-.428.986-.497 2.074-.155 2.417 1.016 1.015 1.835-.411 1.367-2.382-.414-1.747-.468-1.748-1.212-.035" fill="#1976D2" fill-rule="evenodd"/><path fill-opacity=".428" d="M64.173 110.25L64 121h9.05c5.824 0 10.012-.501 11.75-1.405 3.924-2.042 7.548-6.224 6.65-7.675-.466-.755-.345-.973.315-.565 1.188.734 3.661-5.587 2.978-7.614-.23-.682-.715.334-1.077 2.259l-.659 3.5-13.504-.304c-12.408-.28-13.517-.158-13.676 1.5-.095.992-.467-1.121-.827-4.696-.601-5.971-.669-5.625-.827 4.25m51.65-3.719c-.372 2.767-.822 5.692-1 6.5-.211.958 2.089 2.679 6.607 4.946 9.001 4.517 19.117 5.476 22.463 2.13 1.159-1.159 2.107-2.782 2.107-3.607 0-2.203-3.918-5.745-5.629-5.089-.94.361-1.218.15-.767-.58.482-.78.019-.966-1.449-.582-1.187.311-1.943.216-1.679-.209.489-.792-10.53-4.319-11.249-3.601-.218.218 1.779 1.102 4.438 1.963s3.71 1.354 2.335 1.095c-1.375-.258-5.285-.476-8.69-.483l-6.189-.014-.311-3.75c-.299-3.617-.334-3.572-.987 1.281M167.11 105c-.187 1.375-.252 5.214-.145 8.53.255 7.893-2.046 13.492-7.53 18.318-5.632 4.958-12.583 7.152-22.655 7.152-9.874 0-18.366-2.098-26.538-6.557l-6.259-3.414-4.741 2.892C90.69 137.138 85.666 138 63.818 138H44l-.088-10.75c-.075-9.275-1.395-23.572-1.777-19.25-.114 1.287-2.802 1.459-18.899 1.21l-18.767-.29-1.336 3.29C.285 119.222.087 134.594 2.647 150c9.145 55.037 54.415 98.105 110.327 104.961 38.275 4.693 78.191-9.089 105.545-36.442 18.145-18.146 31.956-45.185 35.475-69.453 3.006-20.731 3.072-22.032 1.413-27.738-.882-3.035-1.404-6.561-1.161-7.837.819-4.281-1.547-4.575-34.46-4.273-30.027.276-30.722.237-31.114-1.718-.22-1.1-.461 1.487-.536 5.75L188 121h32v17h-51.954l-.298-17.75c-.163-9.763-.45-16.625-.638-15.25m-51.031 5.583c.048 1.165.285 1.402.604.605.289-.722.253-1.585-.079-1.917-.332-.332-.568.258-.525 1.312M.195 128.5c.02 1.65.244 2.204.498 1.231.254-.973.237-2.323-.037-3-.274-.677-.481.119-.461 1.769M31 159c0 6.594.987 7.33 6.477 4.829 5.77-2.63 3.499-10.829-3-10.829H31v6m11-.5c0 3.025.45 5.5 1 5.5s1-2.475 1-5.5-.45-5.5-1-5.5-1 2.475-1 5.5m3-5.178c0 .898 3.352 10.276 3.891 10.886 1.146 1.298 2.792-.66 4.38-5.208 1.455-4.167 1.577-4.276 1.65-1.473.169 6.469 5.408 9.696 8.522 5.25 2.065-2.947 2.104-9.777.057-9.777-1.111 0-1.5 1.167-1.5 4.5 0 3.833-.296 4.5-2 4.5-1.693 0-2-.667-2-4.348 0-4.124-.151-4.352-2.936-4.431-2.461-.07-3.039.39-3.579 2.848-.829 3.773-2.073 3.743-2.835-.069-.352-1.76-1.231-3-2.125-3-.839 0-1.525.145-1.525.322m21 5.011c0 2.934.222 5.556.494 5.828.272.272 1.847.296 3.5.053C73.344 163.722 74.127 162 71 162c-1.704 0-2-.667-2-4.5 0-3.333-.389-4.5-1.5-4.5-1.146 0-1.5 1.259-1.5 5.333m8.278-4.083c-2.981 3.852-1.714 9.352 2.391 10.382 3.622.909 5.331-.246 5.331-3.601 0-2.364-.44-3.031-2-3.031-1.1 0-2 .45-2 1s.45 1 1 1 1 .45 1 1c0 1.896-3.865.999-4.515-1.048-.836-2.633 1.102-4.952 4.137-4.952 1.308 0 2.378-.45 2.378-1 0-1.445-6.576-1.232-7.722.25m9.233-.267c-.78 1.262.445 8.134 1.742 9.767 1.539 1.939 4.474 1.478 6.19-.973 2.065-2.947 2.104-9.777.057-9.777-1.115 0-1.5 1.175-1.5 4.573 0 3.816-.29 4.519-1.75 4.242-1.277-.242-1.833-1.48-2.057-4.574-.294-4.052-1.378-5.369-2.682-3.258M94 158.333c0 2.934.222 5.556.494 5.828.272.272 1.847.296 3.5.053 3.35-.492 4.133-2.214 1.006-2.214-1.1 0-2-.45-2-1s.648-1 1.441-1c2.396 0 2.911-2.095.66-2.684-2.67-.698-2.74-2.316-.101-2.316 1.1 0 2-.45 2-1s-1.575-1-3.5-1H94v5.333m12.105-3.96c-1.465 1.766-.458 4.38 1.987 5.156 2.737.869 2.353 2.471-.592 2.471-1.375 0-2.5.42-2.5.933 0 1.279 3.372 2.245 5.282 1.512 3.318-1.273 3.071-5.881-.374-6.974-2.513-.798-2.45-2.471.092-2.471 1.1 0 2-.45 2-1 0-1.496-4.584-1.206-5.895.373m7.895 3.96c0 2.934.222 5.556.494 5.828.806.806 6.506-.31 6.506-1.274 0-.488-1.125-.887-2.5-.887s-2.5-.45-2.5-1 .9-1 2-1c1.111 0 2-.667 2-1.5s-.889-1.5-2-1.5c-1.1 0-2-.45-2-1s1.125-1 2.5-1 2.5-.45 2.5-1-1.575-1-3.5-1H114v5.333m8.2.179c.308 5.666 1.829 7.389 2.91 3.297.602-2.281.623-2.275 1.748.501 1.562 3.857 2.917 2.608 2.755-2.541-.173-5.501-1.057-6.769-4.722-6.769H121.9l.3 5.512m8.375-3.262c2.258 7.153 3.261 9.25 4.425 9.25 1.164 0 2.167-2.097 4.425-9.25.518-1.643.309-2.25-.778-2.25-.84 0-1.775 1.306-2.147 3-.362 1.65-1.017 3-1.454 3-.438 0-1.066-1.35-1.396-3-.365-1.826-1.223-3-2.192-3-1.196 0-1.416.561-.883 2.25m9.884 1.119c-.795 4.234-.271 8.205 1.041 7.893 1.331-.318 1.909-11.262.595-11.262-.552 0-1.289 1.516-1.636 3.369m4.954-.876c-1.965 2.999-1.23 6.999 1.562 8.493 1.144.613 1.715 1.658 1.381 2.529-.347.904.013 1.485.92 1.485.82 0 1.769-.787 2.108-1.75.34-.963.879-2.312 1.2-3 .387-.83-.296-1.25-2.032-1.25-4.763 0-4.494-6.106.3-6.82 3.229-.48 2.582-2.18-.829-2.18-2.07 0-3.475.76-4.61 2.493m9.158-.922c-4.271 4.272.549 12.062 5.942 9.605 3.22-1.467 4.177-5.474 2.074-8.683-1.879-2.868-5.637-3.3-8.016-.922m11.096-.904c-1.338 1.337-.617 4.347 1.333 5.565 1.1.687 2 1.591 2 2.009 0 .417-.9.759-2 .759-2.297 0-2.695 1.796-.578 2.608 2.132.819 5.578-1.412 5.578-3.611 0-1.077-1.218-2.6-2.75-3.439-2.725-1.492-2.729-1.512-.5-2.148 1.238-.354 2.25-1.041 2.25-1.527 0-1.026-4.347-1.203-5.333-.216M176 158.333c0 2.934.222 5.556.494 5.828.272.272 1.847.296 3.5.053 3.35-.492 4.133-2.214 1.006-2.214-1.704 0-2-.667-2-4.5 0-3.333-.389-4.5-1.5-4.5-1.146 0-1.5 1.259-1.5 5.333m8.571-3.762c-4.287 4.288.551 12.061 5.97 9.592 1.352-.616 2.459-1.784 2.459-2.596 0-1.031.749-.727 2.484 1.008 2.981 2.981 8.677 2.899 11.021-.158 1.434-1.87 1.516-1.858 3.339.469 2.656 3.39 3.301 1.357 1.509-4.757-1.904-6.494-4.017-6.527-6.267-.097-1.487 4.249-1.773 4.498-4.586 3.99-2.544-.459-3-.996-3-3.532 0-2.518.434-3.04 2.75-3.306 3.628-.418 3.551-2.184-.095-2.184-1.575 0-3.653.893-4.655 2.001l-1.811 2-1.401-2c-1.677-2.394-5.537-2.609-7.717-.43m29.629 3.941c.165 3.031.75 5.511 1.3 5.511s1.135-2.48 1.3-5.511c.245-4.511.009-5.512-1.3-5.512s-1.545 1.001-1.3 5.512m5-4.312c-1.81 1.81-1.473 3.001 1.55 5.476l2.75 2.252-2.833.036c-3.076.039-3.3 2.284-.286 2.869 4.121.799 6.293-4.867 2.619-6.833-1.1-.589-2-1.505-2-2.035 0-.531.9-.965 2-.965s2-.45 2-1c0-1.401-4.349-1.251-5.8.2m-185.313.967c-.062.183-.223 1.796-.357 3.583-.196 2.606.13 3.25 1.644 3.25 2.296 0 3.506-2.698 2.164-4.826-.909-1.442-3.193-2.77-3.451-2.007M125 156.5c0 .825.45 1.5 1 1.5s1-.675 1-1.5-.45-1.5-1-1.5-1 .675-1 1.5m31.412-.132c-1.006 2.621.022 5.132 2.102 5.132 1.538 0 1.986-.674 1.986-2.986 0-3.272-3.043-4.869-4.088-2.146m30.255-.701c-.367.366-.667 1.941-.667 3.5 0 2.138.476 2.833 1.941 2.833 2.52 0 3.397-1.517 2.634-4.557-.586-2.333-2.487-3.198-3.908-1.776M207.5 158c-.34.55-.141 1 .441 1s1.059-.45 1.059-1-.198-1-.441-1-.719.45-1.059 1" fill="#1976D2" fill-rule="evenodd"/></svg>